<?xml version="1.0" encoding="UTF-8" standalone="no"?>
<svg
   xmlns:dc="http://purl.org/dc/elements/1.1/"
   xmlns:cc="http://creativecommons.org/ns#"
   xmlns:rdf="http://www.w3.org/1999/02/22-rdf-syntax-ns#"
   xmlns:svg="http://www.w3.org/2000/svg"
   xmlns="http://www.w3.org/2000/svg"
   xmlns:sodipodi="http://sodipodi.sourceforge.net/DTD/sodipodi-0.dtd"
   xmlns:inkscape="http://www.inkscape.org/namespaces/inkscape"
   version="1.1"
   x="0px"
   y="0px"
   viewBox="137.2 137.6 100 100"
   enable-background="new 137.2 137.6 100 100"
   xml:space="preserve"
   id="svg2"
   inkscape:version="0.91 r13725"
   sodipodi:docname="icon-snowflake.svg"
   width="100"
   height="100"><metadata
     id="metadata104"><rdf:RDF><cc:Work
         rdf:about=""><dc:format>image/svg+xml</dc:format><dc:type
           rdf:resource="http://purl.org/dc/dcmitype/StillImage" /><dc:title></dc:title></cc:Work></rdf:RDF></metadata><defs
     id="defs102" /><sodipodi:namedview
     pagecolor="#ffffff"
     bordercolor="#666666"
     borderopacity="1"
     objecttolerance="10"
     gridtolerance="10"
     guidetolerance="10"
     inkscape:pageopacity="0"
     inkscape:pageshadow="2"
     inkscape:window-width="1920"
     inkscape:window-height="1056"
     id="namedview100"
     showgrid="false"
     inkscape:zoom="1.888"
     inkscape:cx="81.25"
     inkscape:cy="62.5"
     inkscape:window-x="0"
     inkscape:window-y="24"
     inkscape:window-maximized="1"
     inkscape:current-layer="svg2" /><g
     id="g4"
     transform="translate(-1.5889831,-0.63559322)"><rect
       x="186.2"
       y="141.89999"
       width="2"
       height="17.700001"
       id="rect6" /></g><g
     id="g8"
     transform="translate(-1.5889831,-0.63559322)"><rect
       x="185.7"
       y="159.5"
       width="3"
       height="28.1"
       id="rect10" /></g><g
     id="g12"
     transform="translate(-1.5889831,-0.63559322)"><rect
       x="192"
       y="145.7"
       transform="matrix(0.7071,0.7071,-0.7071,0.7071,165.2693,-91.3957)"
       width="2"
       height="16.200001"
       id="rect14" /></g><g
     id="g16"
     transform="translate(-1.5889831,-0.63559322)"><rect
       x="173.39999"
       y="152.8"
       transform="matrix(0.7071,0.7071,-0.7071,0.7071,161.9209,-83.2886)"
       width="16.200001"
       height="2"
       id="rect18" /></g><g
     id="g20"
     transform="translate(-1.5889831,-0.63559322)"><rect
       x="146.5"
       y="167.89999"
       transform="matrix(0.866,0.5,-0.5,0.866,105.1639,-54.7415)"
       width="16.5"
       height="2"
       id="rect22" /></g><g
     id="g24"
     transform="translate(-1.5889831,-0.63559322)"><rect
       x="159.89999"
       y="178.8"
       transform="matrix(0.866,0.5,-0.5,0.866,113.5507,-63.1205)"
       width="29.299999"
       height="3"
       id="rect26" /></g><g
     id="g28"
     transform="translate(-1.5889831,-0.63559322)"><rect
       x="152.7"
       y="164.8"
       transform="matrix(0.2588,0.9659,-0.9659,0.2588,279.2756,-32.4621)"
       width="16.200001"
       height="2"
       id="rect30" /></g><g
     id="g32"
     transform="translate(-1.5889831,-0.63559322)"><rect
       x="154.10001"
       y="167.60001"
       transform="matrix(0.2588,0.9659,-0.9659,0.2588,284.622,-19.5617)"
       width="2"
       height="16.200001"
       id="rect34" /></g><g
     id="g36"
     transform="translate(-1.5889831,-0.63559322)"><rect
       x="154.2"
       y="197.3"
       transform="matrix(0.4999,0.8661,-0.8661,0.4999,256.1314,-31.379)"
       width="2"
       height="17.700001"
       id="rect38" /></g><g
     id="g40"
     transform="translate(-1.5889831,-0.63559322)"><rect
       x="173.60001"
       y="180.60001"
       transform="matrix(0.5001,0.866,-0.866,0.5001,256.0918,-54.2795)"
       width="3"
       height="28.1"
       id="rect42" /></g><g
     id="g44"
     transform="translate(-1.5889831,-0.63559322)"><rect
       x="146.89999"
       y="198.60001"
       transform="matrix(0.9659,0.2588,-0.2588,0.9659,56.9416,-33.3316)"
       width="16.200001"
       height="2"
       id="rect46" /></g><g
     id="g48"
     transform="translate(-1.5889831,-0.63559322)"><rect
       x="159.8"
       y="201.39999"
       transform="matrix(0.9659,0.2588,-0.2588,0.9659,59.7054,-34.4765)"
       width="2"
       height="16.200001"
       id="rect50" /></g><g
     id="g52"
     transform="translate(-1.5889831,-0.63559322)"><rect
       x="186.2"
       y="215.7"
       width="2"
       height="17.700001"
       id="rect54" /></g><g
     id="g56"
     transform="translate(-1.5889831,-0.63559322)"><rect
       x="185.7"
       y="187.60001"
       width="3"
       height="28.1"
       id="rect58" /></g><g
     id="g60"
     transform="translate(-1.5889831,-0.63559322)"><rect
       x="180.5"
       y="213.39999"
       transform="matrix(0.7071,0.7071,-0.7071,0.7071,209.7607,-63.4677)"
       width="2"
       height="16.200001"
       id="rect62" /></g><g
     id="g64"
     transform="translate(-1.5889831,-0.63559322)"><rect
       x="184.89999"
       y="220.5"
       transform="matrix(0.7071,0.7071,-0.7071,0.7071,213.1191,-71.5756)"
       width="16.200001"
       height="2"
       id="rect66" /></g><g
     id="g68"
     transform="translate(-1.5889831,-0.63559322)"><rect
       x="210.39999"
       y="205.10001"
       transform="matrix(0.866,0.5,-0.5,0.866,132.417,-81.993)"
       width="17.700001"
       height="2"
       id="rect70" /></g><g
     id="g72"
     transform="translate(-1.5889831,-0.63559322)"><rect
       x="185.3"
       y="193.2"
       transform="matrix(0.866,0.5,-0.5,0.866,124.0435,-73.6171)"
       width="28.1"
       height="3"
       id="rect74" /></g><g
     id="g76"
     transform="translate(-1.5889831,-0.63559322)"><rect
       x="205.60001"
       y="208.5"
       transform="matrix(0.2588,0.9659,-0.9659,0.2588,360.734,-51.0938)"
       width="16.200001"
       height="2"
       id="rect78" /></g><g
     id="g80"
     transform="translate(-1.5889831,-0.63559322)"><rect
       x="218.39999"
       y="191.5"
       transform="matrix(0.2588,0.9659,-0.9659,0.2588,355.3973,-63.9881)"
       width="2"
       height="16.200001"
       id="rect82" /></g><g
     id="g84"
     transform="translate(-1.5889831,-0.63559322)"><rect
       x="218.60001"
       y="160.60001"
       transform="matrix(0.4999,0.8661,-0.8661,0.4999,256.1351,-105.7429)"
       width="2"
       height="16.700001"
       id="rect86" /></g><g
     id="g88"
     transform="translate(-1.5889831,-0.63559322)"><rect
       x="198.3"
       y="165.8"
       transform="matrix(0.5001,0.866,-0.866,0.5001,256.0911,-82.8643)"
       width="3"
       height="29.1"
       id="rect90" /></g><g
     id="g92"
     transform="translate(-1.5889831,-0.63559322)"><rect
       x="211.3"
       y="174.7"
       transform="matrix(0.9659,0.2588,-0.2588,0.9659,52.9372,-50.791)"
       width="16.200001"
       height="2"
       id="rect94" /></g><g
     id="g96"
     transform="translate(-1.5889831,-0.63559322)"><rect
       x="212.7"
       y="157.60001"
       transform="matrix(0.9659,0.2588,-0.2588,0.9659,50.1799,-49.6514)"
       width="2"
       height="16.200001"
       id="rect98" /></g></svg>